# xmcd
# 
# Track frame offsets:
#     150
#     14985
#     39132
#     61970
#     74880
#     97540
#     109340
#     126815
#     142785
#     157690
#     177337
#     196037
#     212932
#     231595
#     250657
#     267200
#     281277
#     305480
# 
# Disc length: 4241
# 
# Revision: 14
# Processed by: cddbd v1.5.2PL0 Copyright (c) Steve Scherf et al.
# Submitted via: fre:ac v1.0.17
# 
DISCID=fa108f12
DTITLE=Bad Company - Original Bad Company Anthology [CD2]
DYEAR=1999
DGENRE=Rock
TTITLE0=Honey Child
TTITLE1=Run With The Pack
TTITLE2=Silver, Blue And Gold
TTITLE3=Do Right By Your Woman
TTITLE4=Burnin' Sky
TTITLE5=Heartbeat
TTITLE6=Too Bad
TTITLE7=Smokin' 45
TTITLE8=Rock And Roll Fantasy
TTITLE9=Evil Wild
TTITLE10=Oh Atlanta
TTITLE11=Rhythm Machine
TTITLE12=Untie The Knot
TTITLE13=Downhill Ryder
TTITLE14=Tracking Down A Runaway
TTITLE15=Ain't It Good
TTITLE16=Hammer Of Love
TTITLE17=Hey, Hey
EXTD=\n\nElektra - WEA - 7559-62391-2 YEAR: 1999
EXTT0=
EXTT1=
EXTT2=
EXTT3=
EXTT4=
EXTT5=
EXTT6=
EXTT7=
EXTT8=
EXTT9=
EXTT10=
EXTT11=
EXTT12=
EXTT13=
EXTT14=
EXTT15=
EXTT16=
EXTT17=
PLAYORDER=
